<?xml version="1.0" encoding="utf-8"?>
<!-- Generator: Adobe Illustrator 17.0.0, SVG Export Plug-In . SVG Version: 6.00 Build 0)  -->
<!DOCTYPE svg PUBLIC "-//W3C//DTD SVG 1.1//EN" "http://www.w3.org/Graphics/SVG/1.1/DTD/svg11.dtd">
<svg version="1.1" id="Layer_1" xmlns="http://www.w3.org/2000/svg" xmlns:xlink="http://www.w3.org/1999/xlink" x="0px" y="0px"
	 width="595.28px" height="841.89px" viewBox="0 0 595.28 841.89" enable-background="new 0 0 595.28 841.89" xml:space="preserve">
<g>
	<path fill="#3CDFD4" d="M450.98,435.67c-12.57,11.58-27.03,20.39-41.61,29.2c-12.34,7.45-24.84,14.18-38.6,18.46
		c-1.9,0.59-3.85,1.01-5.77,1.51c-0.5-3.79-3.46-2.93-5.79-2.93c-30.24-0.03-60.48-0.01-90.71-0.06c-1.89,0-4.05,0.78-5.59-1.13
		c10.73-4.13,22.05-6.24,33-9.63c6.28-1.94,12.57-3.84,20.22-6.18c-8.02-4.21-14.73-7.75-21.45-11.26
		c-29.18-15.24-58.7-29.88-87.2-46.39c-24.71-14.32-47.94-30.76-67.95-51.32c-21.85-22.45-37.82-48.11-42.71-79.72
		c-4.02-26,0.68-50.76,10.58-74.7c11.42-27.64,28.19-51.93,47.98-74.18c7.64-8.58,15.64-16.85,23.56-25.17
		c1.44-1.51,2.39-2.24,0.2-4.18c-14.41-12.79-11.38-29.95,6.76-38.09c9.94-4.46,19.81-3.87,29.13,1.91c4.1,2.54,7.98,5.44,11.87,8.3
		c9.97,7.33,13.4,18.31,9.02,28.51c-4.6,10.7-16.74,17.51-28.04,15.68c-3.29-0.54-6.73-1.11-9.45-3.01
		c-3.94-2.75-6.13-1.01-8.65,2.03c-9.91,11.91-19.88,23.74-29.2,36.14c-14.05,18.68-24.53,39.08-29.54,61.93
		c-6.36,29.07-0.48,56.2,14.68,81.49c16.95,28.27,40.9,49.81,67.1,69.07c36.81,27.06,77.24,47.8,118.47,67.08
		c10.25,4.79,20.47,9.67,30.68,14.56c1.99,0.96,3.69,1.7,6.05,0.52c23.39-11.7,45.33-25.45,63.3-44.77
		c21.05-22.64,32.38-49.02,29.84-80.39c-1.84-22.78-10.44-43.23-22.73-62.22c-12.96-20.03-29.28-37.06-47.32-52.55
		c-2.42-2.08-4-1.12-6.13,0.12c-11.44,6.64-25.21,4.92-33.98-4.14c-8.17-8.43-8.53-21.11-0.64-29.82c3.58-3.95,7.3-7.82,11.37-11.24
		c8.07-6.77,17.45-8.04,27.24-4.72c8.83,2.99,14.53,9.15,16.28,18.57c0.98,5.2-0.36,10-3.01,14.33c-1.44,2.36-1.27,3.56,0.82,5.32
		c28.48,24.02,51.57,52.42,68.62,85.58c11.25,21.86,18.67,44.93,19.01,69.74C491.16,383.26,476.63,412.04,450.98,435.67z"/>
	<path fill="#3DD5CF" d="M365,484.84c-12.14,3.92-24.35,7.65-36.42,11.8c-24.26,8.34-48.43,16.95-72.3,26.38
		c-33.91,13.41-67.53,27.43-98.78,46.47c-22.06,13.44-42.34,28.95-56.98,50.79c-13.05,19.47-18.17,41.19-18.69,64.3
		c-0.08,3.37,1.77,3.16,4.07,3.32c24.05,1.7,41.66,17.44,46.18,41.15c4.87,25.54-13.29,52.16-38.69,56.71
		c-27.32,4.9-52.87-13.07-57.2-40.16c-2.69-16.87,2.38-31.25,14.06-43.38c2.49-2.57,3.11-4.73,2.34-8.32
		c-5.72-26.51-0.54-51.6,10.83-75.69c14.38-30.46,36.92-54.02,63.69-73.74c41.02-30.21,87.1-49.8,135.8-63.75
		c1.54,1.91,3.7,1.13,5.59,1.13c30.23,0.05,60.47,0.03,90.71,0.06C361.54,481.91,364.5,481.05,365,484.84z"/>
	<path fill="#3DD5CF" d="M561.75,633.95c-1.67,8.23-5.59,15.15-12.62,21.35c-4.49-20.16-13.71-36.97-26.11-52.06
		c-17.75-21.61-39.69-38.33-63.12-53.23c-27.17-17.27-55.87-31.64-85.23-44.73c-0.72-0.32-1.4-0.74-2.78-1.46
		c6.51-2.32,12.37-4.36,18.19-6.51c2.8-1.04,5.93-1.75,8.23-3.51c8.72-6.66,16.18-4.33,25.13,0.67
		c29.08,16.29,57.87,32.93,84.16,53.54c17.37,13.62,33.65,28.38,45.19,47.51C559.88,607.28,564.63,619.78,561.75,633.95z"/>
</g>
</svg>
