<svg xmlns="http://www.w3.org/2000/svg" viewBox="0 0 27.37 27.37"><defs><style>.cls-1{fill:#fff;}</style></defs><title>books  1</title><g id="Layer_2" data-name="Layer 2"><g id="Layer_1-2" data-name="Layer 1"><g id="Group_4953" data-name="Group 4953"><g id="Group_4952" data-name="Group 4952"><g id="Group_4951" data-name="Group 4951"><g id="Group_4950" data-name="Group 4950"><path id="Path_4213" data-name="Path 4213" class="cls-1" d="M19.61,9.12H18.7a.47.47,0,0,0-.46.46.46.46,0,0,0,.46.45h.91a.45.45,0,0,0,.46-.45A.46.46,0,0,0,19.61,9.12Z"/><path id="Path_4214" data-name="Path 4214" class="cls-1" d="M19.61,11H18.7a.46.46,0,1,0,0,.91h.91a.46.46,0,1,0,0-.91Z"/><path id="Path_4215" data-name="Path 4215" class="cls-1" d="M19.61,7.3H18.7a.46.46,0,1,0,0,.91h.91a.46.46,0,1,0,0-.91Z"/><path id="Path_4216" data-name="Path 4216" class="cls-1" d="M19.61,21.89H18.7a.46.46,0,0,0-.45.46.45.45,0,0,0,.45.45h.91a.45.45,0,0,0,.46-.45A.46.46,0,0,0,19.61,21.89Z"/><path id="Path_4217" data-name="Path 4217" class="cls-1" d="M9.58,7.3H6.84a.45.45,0,0,0-.45.46v6.38a.46.46,0,0,0,.45.46H9.58a.46.46,0,0,0,.46-.46h0V7.76a.47.47,0,0,0-.46-.46Zm-.46,6.39H7.3V8.21H9.12Z"/><path id="Path_4218" data-name="Path 4218" class="cls-1" d="M9.58,21.89H6.84a.47.47,0,0,0-.46.46.46.46,0,0,0,.46.45H9.58a.44.44,0,0,0,.45-.45.46.46,0,0,0-.45-.46Z"/><path id="Path_4219" data-name="Path 4219" class="cls-1" d="M9.58,23.72H6.84a.46.46,0,1,0,0,.91H9.58a.46.46,0,0,0,0-.91Z"/><path id="Path_4220" data-name="Path 4220" class="cls-1" d="M19.61,23.72H18.7a.46.46,0,0,0-.45.46.45.45,0,0,0,.45.45h.91a.46.46,0,1,0,0-.91Z"/><path id="Path_4221" data-name="Path 4221" class="cls-1" d="M25.09,23.72H23.26a.46.46,0,0,0-.45.46.45.45,0,0,0,.45.45h1.83a.46.46,0,0,0,0-.91Z"/><path id="Path_4222" data-name="Path 4222" class="cls-1" d="M15.51,7.75a.45.45,0,0,0-.46-.45H13.23a.46.46,0,0,0-.46.45h0v6.39a.47.47,0,0,0,.46.46h1.82a.46.46,0,0,0,.46-.46h0Zm-.91,5.94h-.91V8.21h.91Z"/><path id="Path_4223" data-name="Path 4223" class="cls-1" d="M25.09,21.89H23.26a.46.46,0,0,0-.45.46.45.45,0,0,0,.45.45h1.83a.45.45,0,0,0,.45-.45A.46.46,0,0,0,25.09,21.89Z"/><path id="Path_4224" data-name="Path 4224" class="cls-1" d="M15.05,23.72H13.23a.47.47,0,0,0-.46.46.46.46,0,0,0,.46.45h1.82a.46.46,0,1,0,0-.91Z"/><path id="Path_4225" data-name="Path 4225" class="cls-1" d="M23.26,16.42a.46.46,0,0,0,.46-.45h0V11.4a.46.46,0,0,0-.91,0h0V16A.45.45,0,0,0,23.26,16.42Z"/><path id="Path_4226" data-name="Path 4226" class="cls-1" d="M25.54,11.4a.45.45,0,0,0-.45-.45.46.46,0,0,0-.46.45h0V16a.46.46,0,0,0,.46.45.45.45,0,0,0,.45-.45Z"/><path id="Path_4227" data-name="Path 4227" class="cls-1" d="M26,3.65H23.26a.46.46,0,0,0,0,.91H26a.47.47,0,0,1,.46.46V26a.47.47,0,0,1-.46.46H21.9V7.3h2.73a.47.47,0,0,0,.46-.46.46.46,0,0,0-.46-.45H21.9V2.28A1.37,1.37,0,0,0,20.56.91H17.79a1.37,1.37,0,0,0-1.37,1.37V26.45H11.86V2.74h3.19a.46.46,0,0,0,0-.92H11.86V1.37A1.35,1.35,0,0,0,10.52,0H5.93A1.37,1.37,0,0,0,4.56,1.37v4.1H2.28a.46.46,0,1,0,0,.92H4.56V26.46H1.37A.47.47,0,0,1,.91,26V4.11a.46.46,0,0,1,.46-.46H3.19a.47.47,0,0,0,.46-.46.46.46,0,0,0-.46-.45H1.37A1.36,1.36,0,0,0,0,4.1V26a1.37,1.37,0,0,0,1.37,1.37H26A1.37,1.37,0,0,0,27.37,26V5A1.37,1.37,0,0,0,26,3.65ZM11,26.46H5.47V3.65H9.58A.46.46,0,0,0,10,3.19a.45.45,0,0,0-.45-.45H5.47V1.37A.46.46,0,0,1,5.92.91h4.57a.45.45,0,0,1,.46.44V26.46Zm10,0H17.33V4.56h2.29a.46.46,0,0,0,0-.91H17.33V2.28a.46.46,0,0,1,.45-.46h2.75a.45.45,0,0,1,.45.44v24.2Z"/><path id="Path_4228" data-name="Path 4228" class="cls-1" d="M3.19,21.89H2.28a.47.47,0,0,0-.46.46.46.46,0,0,0,.46.45h.91a.45.45,0,0,0,.46-.45.46.46,0,0,0-.45-.46Z"/><path id="Path_4229" data-name="Path 4229" class="cls-1" d="M3.19,23.72H2.28a.46.46,0,1,0,0,.91h.91a.46.46,0,1,0,0-.91Z"/><path id="Path_4230" data-name="Path 4230" class="cls-1" d="M15.05,21.89H13.23a.47.47,0,0,0-.46.46.46.46,0,0,0,.46.45h1.82a.45.45,0,0,0,.46-.45A.47.47,0,0,0,15.05,21.89Z"/><path id="Path_4231" data-name="Path 4231" class="cls-1" d="M3.19,11H2.28a.46.46,0,0,0,0,.91h.91a.46.46,0,1,0,0-.91Z"/><path id="Path_4232" data-name="Path 4232" class="cls-1" d="M3.19,12.77H2.28a.46.46,0,1,0,0,.92h.91a.46.46,0,1,0,0-.92Z"/></g></g></g></g></g></g></svg>