<svg xmlns="http://www.w3.org/2000/svg" viewBox="0 0 22.28 26.33"><defs><style>.cls-1{fill:#fff;}</style></defs><title>courses 2 </title><g id="Layer_2" data-name="Layer 2"><g id="Layer_1-2" data-name="Layer 1"><g id="Group_871" data-name="Group 871"><path id="Path_1342" data-name="Path 1342" class="cls-1" d="M21.67,0H.61A.6.6,0,0,0,0,.6H0V25.72a.61.61,0,0,0,.61.61H21.67a.61.61,0,0,0,.61-.61V.6A.61.61,0,0,0,21.67,0Zm-.61,25.12H1.21V1.2H21.06Z"/></g><rect id="Rectangle_699" data-name="Rectangle 699" class="cls-1" x="8.64" y="3.68" width="5.02" height="1" rx="0.34"/><rect id="Rectangle_700" data-name="Rectangle 700" class="cls-1" x="3.12" y="6.69" width="16.05" height="1" rx="0.34"/><rect id="Rectangle_701" data-name="Rectangle 701" class="cls-1" x="3.12" y="9.7" width="16.05" height="1" rx="0.34"/><g id="Group_994" data-name="Group 994"><g id="Group_871-2" data-name="Group 871-2"><path id="Path_1242" data-name="Path 1242" class="cls-1" d="M13.58,15.57a1,1,0,0,1-.22-.24.79.79,0,0,1,0-.34,1,1,0,0,0-.19-.8,1,1,0,0,0-.8-.19A1,1,0,0,1,12,14a1,1,0,0,1-.24-.23.78.78,0,0,0-.64-.42.76.76,0,0,0-.42.06.86.86,0,0,0-.37.36.76.76,0,0,1-.24.23,1,1,0,0,1-.34,0,1,1,0,0,0-.8.19,1,1,0,0,0-.18.8,1.3,1.3,0,0,1,0,.34,1.26,1.26,0,0,1-.22.24,1,1,0,0,0-.46.71,1,1,0,0,0,.46.72,1,1,0,0,1,.22.23,1.29,1.29,0,0,1,0,.34,1,1,0,0,0,.18.8,1,1,0,0,0,.8.19,1.28,1.28,0,0,1,.34,0,.76.76,0,0,1,.24.23.77.77,0,0,0,.79.43.55.55,0,0,0,.28-.07.78.78,0,0,0,.36-.36,1,1,0,0,1,.24-.23,1.29,1.29,0,0,1,.34,0,1,1,0,0,0,.8-.19,1,1,0,0,0,.19-.8.78.78,0,0,1,0-.34.8.8,0,0,1,.22-.23,1,1,0,0,0,.44-.72A.94.94,0,0,0,13.58,15.57Zm-.4,1a1.3,1.3,0,0,0-.38.46,1.38,1.38,0,0,0-.05.61,1.29,1.29,0,0,1,0,.34,1.45,1.45,0,0,1-.36,0,1.36,1.36,0,0,0-.6.05,1.33,1.33,0,0,0-.44.38l-.2.2s-.05.05-.07.05-.2-.17-.26-.25a1.7,1.7,0,0,0-.46-.38A.82.82,0,0,0,10,18H9.74a1.22,1.22,0,0,1-.33,0,1,1,0,0,1,0-.34A1.44,1.44,0,0,0,9.34,17,1.4,1.4,0,0,0,9,16.54c-.07-.06-.23-.21-.23-.26s.16-.2.23-.27a1.13,1.13,0,0,0,.39-.45A1.38,1.38,0,0,0,9.39,15a1.29,1.29,0,0,1,0-.34,1.29,1.29,0,0,1,.34,0,1.38,1.38,0,0,0,.61,0,1.3,1.3,0,0,0,.46-.38c.06-.08.21-.24.26-.24s0,0,.07.05a1.8,1.8,0,0,1,.2.19,1.33,1.33,0,0,0,.44.38,1.36,1.36,0,0,0,.6,0,1.45,1.45,0,0,1,.36,0,1.29,1.29,0,0,1,0,.34,1.25,1.25,0,0,0,.05.61,1.19,1.19,0,0,0,.38.45c.07.07.24.22.24.27S13.25,16.48,13.18,16.54Zm.4-1a1,1,0,0,1-.22-.24.79.79,0,0,1,0-.34,1,1,0,0,0-.19-.8,1,1,0,0,0-.8-.19A1,1,0,0,1,12,14a1,1,0,0,1-.24-.23.78.78,0,0,0-.64-.42.76.76,0,0,0-.42.06.86.86,0,0,0-.37.36.76.76,0,0,1-.24.23,1,1,0,0,1-.34,0,1,1,0,0,0-.8.19,1,1,0,0,0-.18.8,1.3,1.3,0,0,1,0,.34,1.26,1.26,0,0,1-.22.24,1,1,0,0,0-.46.71,1,1,0,0,0,.46.72,1,1,0,0,1,.22.23,1.29,1.29,0,0,1,0,.34,1,1,0,0,0,.18.8,1,1,0,0,0,.8.19,1.28,1.28,0,0,1,.34,0,.76.76,0,0,1,.24.23.77.77,0,0,0,.79.43.55.55,0,0,0,.28-.07.78.78,0,0,0,.36-.36,1,1,0,0,1,.24-.23,1.29,1.29,0,0,1,.34,0,1,1,0,0,0,.8-.19,1,1,0,0,0,.19-.8.78.78,0,0,1,0-.34.8.8,0,0,1,.22-.23,1,1,0,0,0,.44-.72A.94.94,0,0,0,13.58,15.57Zm-.4,1a1.3,1.3,0,0,0-.38.46,1.38,1.38,0,0,0-.05.61,1.29,1.29,0,0,1,0,.34,1.45,1.45,0,0,1-.36,0,1.36,1.36,0,0,0-.6.05,1.33,1.33,0,0,0-.44.38l-.2.2s-.05.05-.07.05-.2-.17-.26-.25a1.7,1.7,0,0,0-.46-.38A.82.82,0,0,0,10,18H9.74a1.22,1.22,0,0,1-.33,0,1,1,0,0,1,0-.34A1.44,1.44,0,0,0,9.34,17,1.4,1.4,0,0,0,9,16.54c-.07-.06-.23-.21-.23-.26s.16-.2.23-.27a1.13,1.13,0,0,0,.39-.45A1.38,1.38,0,0,0,9.39,15a1.29,1.29,0,0,1,0-.34,1.29,1.29,0,0,1,.34,0,1.38,1.38,0,0,0,.61,0,1.3,1.3,0,0,0,.46-.38c.06-.08.21-.24.26-.24s0,0,.07.05a1.8,1.8,0,0,1,.2.19,1.33,1.33,0,0,0,.44.38,1.36,1.36,0,0,0,.6,0,1.45,1.45,0,0,1,.36,0,1.29,1.29,0,0,1,0,.34,1.25,1.25,0,0,0,.05.61,1.19,1.19,0,0,0,.38.45c.07.07.24.22.24.27S13.25,16.48,13.18,16.54Zm.4-1a1,1,0,0,1-.22-.24.79.79,0,0,1,0-.34,1,1,0,0,0-.19-.8,1,1,0,0,0-.8-.19A1,1,0,0,1,12,14a1,1,0,0,1-.24-.23.78.78,0,0,0-.64-.42.76.76,0,0,0-.42.06.86.86,0,0,0-.37.36.76.76,0,0,1-.24.23,1,1,0,0,1-.34,0,1,1,0,0,0-.8.19,1,1,0,0,0-.18.8,1.3,1.3,0,0,1,0,.34,1.26,1.26,0,0,1-.22.24,1,1,0,0,0-.46.71,1,1,0,0,0,.46.72,1,1,0,0,1,.22.23,1.29,1.29,0,0,1,0,.34,1,1,0,0,0,.18.8,1,1,0,0,0,.8.19,1.28,1.28,0,0,1,.34,0,.76.76,0,0,1,.24.23.77.77,0,0,0,.79.43.55.55,0,0,0,.28-.07.78.78,0,0,0,.36-.36,1,1,0,0,1,.24-.23,1.29,1.29,0,0,1,.34,0,1,1,0,0,0,.8-.19,1,1,0,0,0,.19-.8.78.78,0,0,1,0-.34.8.8,0,0,1,.22-.23,1,1,0,0,0,.44-.72A.94.94,0,0,0,13.58,15.57Zm-.4,1a1.3,1.3,0,0,0-.38.46,1.38,1.38,0,0,0-.05.61,1.29,1.29,0,0,1,0,.34,1.45,1.45,0,0,1-.36,0,1.36,1.36,0,0,0-.6.05,1.33,1.33,0,0,0-.44.38l-.2.2s-.05.05-.07.05-.2-.17-.26-.25a1.7,1.7,0,0,0-.46-.38A.82.82,0,0,0,10,18H9.74a1.22,1.22,0,0,1-.33,0,1,1,0,0,1,0-.34A1.44,1.44,0,0,0,9.34,17,1.4,1.4,0,0,0,9,16.54c-.07-.06-.23-.21-.23-.26s.16-.2.23-.27a1.13,1.13,0,0,0,.39-.45A1.38,1.38,0,0,0,9.39,15a1.29,1.29,0,0,1,0-.34,1.29,1.29,0,0,1,.34,0,1.38,1.38,0,0,0,.61,0,1.3,1.3,0,0,0,.46-.38c.06-.08.21-.24.26-.24s0,0,.07.05a1.8,1.8,0,0,1,.2.19,1.33,1.33,0,0,0,.44.38,1.36,1.36,0,0,0,.6,0,1.45,1.45,0,0,1,.36,0,1.29,1.29,0,0,1,0,.34,1.25,1.25,0,0,0,.05.61,1.19,1.19,0,0,0,.38.45c.07.07.24.22.24.27S13.25,16.48,13.18,16.54Zm.4-1a1,1,0,0,1-.22-.24.79.79,0,0,1,0-.34,1,1,0,0,0-.19-.8,1,1,0,0,0-.8-.19A1,1,0,0,1,12,14a1,1,0,0,1-.24-.23.78.78,0,0,0-.64-.42.76.76,0,0,0-.42.06.86.86,0,0,0-.37.36.76.76,0,0,1-.24.23,1,1,0,0,1-.34,0,1,1,0,0,0-.8.19,1,1,0,0,0-.18.8,1.3,1.3,0,0,1,0,.34,1.26,1.26,0,0,1-.22.24,1,1,0,0,0-.46.71,1,1,0,0,0,.46.72,1,1,0,0,1,.22.23,1.29,1.29,0,0,1,0,.34,1,1,0,0,0,.18.8,1,1,0,0,0,.8.19,1.28,1.28,0,0,1,.34,0,.76.76,0,0,1,.24.23.77.77,0,0,0,.79.43.55.55,0,0,0,.28-.07.78.78,0,0,0,.36-.36,1,1,0,0,1,.24-.23,1.29,1.29,0,0,1,.34,0,1,1,0,0,0,.8-.19,1,1,0,0,0,.19-.8.78.78,0,0,1,0-.34.8.8,0,0,1,.22-.23,1,1,0,0,0,.44-.72A.94.94,0,0,0,13.58,15.57Zm-.4,1a1.3,1.3,0,0,0-.38.46,1.38,1.38,0,0,0-.05.61,1.29,1.29,0,0,1,0,.34,1.45,1.45,0,0,1-.36,0,1.36,1.36,0,0,0-.6.05,1.33,1.33,0,0,0-.44.38l-.2.2s-.05.05-.07.05-.2-.17-.26-.25a1.7,1.7,0,0,0-.46-.38A.82.82,0,0,0,10,18H9.74a1.22,1.22,0,0,1-.33,0,1,1,0,0,1,0-.34A1.44,1.44,0,0,0,9.34,17,1.4,1.4,0,0,0,9,16.54c-.07-.06-.23-.21-.23-.26s.16-.2.23-.27a1.13,1.13,0,0,0,.39-.45A1.38,1.38,0,0,0,9.39,15a1.29,1.29,0,0,1,0-.34,1.29,1.29,0,0,1,.34,0,1.38,1.38,0,0,0,.61,0,1.3,1.3,0,0,0,.46-.38c.06-.08.21-.24.26-.24s0,0,.07.05a1.8,1.8,0,0,1,.2.19,1.33,1.33,0,0,0,.44.38,1.36,1.36,0,0,0,.6,0,1.45,1.45,0,0,1,.36,0,1.29,1.29,0,0,1,0,.34,1.25,1.25,0,0,0,.05.61,1.19,1.19,0,0,0,.38.45c.07.07.24.22.24.27S13.25,16.48,13.18,16.54Zm.4-1a1,1,0,0,1-.22-.24.79.79,0,0,1,0-.34,1,1,0,0,0-.19-.8,1,1,0,0,0-.8-.19A1,1,0,0,1,12,14a1,1,0,0,1-.24-.23.78.78,0,0,0-.64-.42.76.76,0,0,0-.42.06.86.86,0,0,0-.37.36.76.76,0,0,1-.24.23,1,1,0,0,1-.34,0,1,1,0,0,0-.8.19,1,1,0,0,0-.18.8,1.3,1.3,0,0,1,0,.34,1.26,1.26,0,0,1-.22.24,1,1,0,0,0-.46.71,1,1,0,0,0,.46.72,1,1,0,0,1,.22.23,1.29,1.29,0,0,1,0,.34,1,1,0,0,0,.18.8,1,1,0,0,0,.8.19,1.28,1.28,0,0,1,.34,0,.76.76,0,0,1,.24.23.77.77,0,0,0,.79.43.55.55,0,0,0,.28-.07.78.78,0,0,0,.36-.36,1,1,0,0,1,.24-.23,1.29,1.29,0,0,1,.34,0,1,1,0,0,0,.8-.19,1,1,0,0,0,.19-.8.78.78,0,0,1,0-.34.8.8,0,0,1,.22-.23,1,1,0,0,0,.44-.72A.94.94,0,0,0,13.58,15.57Zm-.4,1a1.3,1.3,0,0,0-.38.46,1.38,1.38,0,0,0-.05.61,1.29,1.29,0,0,1,0,.34,1.45,1.45,0,0,1-.36,0,1.36,1.36,0,0,0-.6.05,1.33,1.33,0,0,0-.44.38l-.2.2s-.05.05-.07.05-.2-.17-.26-.25a1.7,1.7,0,0,0-.46-.38A.82.82,0,0,0,10,18H9.74a1.22,1.22,0,0,1-.33,0,1,1,0,0,1,0-.34A1.44,1.44,0,0,0,9.34,17,1.4,1.4,0,0,0,9,16.54c-.07-.06-.23-.21-.23-.26s.16-.2.23-.27a1.13,1.13,0,0,0,.39-.45A1.38,1.38,0,0,0,9.39,15a1.29,1.29,0,0,1,0-.34,1.29,1.29,0,0,1,.34,0,1.38,1.38,0,0,0,.61,0,1.3,1.3,0,0,0,.46-.38c.06-.08.21-.24.26-.24s0,0,.07.05a1.8,1.8,0,0,1,.2.19,1.33,1.33,0,0,0,.44.38,1.36,1.36,0,0,0,.6,0,1.45,1.45,0,0,1,.36,0,1.29,1.29,0,0,1,0,.34,1.25,1.25,0,0,0,.05.61,1.19,1.19,0,0,0,.38.45c.07.07.24.22.24.27S13.25,16.48,13.18,16.54Zm.4-1a1,1,0,0,1-.22-.24.79.79,0,0,1,0-.34,1,1,0,0,0-.19-.8,1,1,0,0,0-.8-.19A1,1,0,0,1,12,14a1,1,0,0,1-.24-.23.78.78,0,0,0-.64-.42.76.76,0,0,0-.42.06.86.86,0,0,0-.37.36.76.76,0,0,1-.24.23,1,1,0,0,1-.34,0,1,1,0,0,0-.8.19,1,1,0,0,0-.18.8,1.3,1.3,0,0,1,0,.34,1.26,1.26,0,0,1-.22.24,1,1,0,0,0-.46.71,1,1,0,0,0,.46.72,1,1,0,0,1,.22.23,1.29,1.29,0,0,1,0,.34,1,1,0,0,0,.18.8,1,1,0,0,0,.8.19,1.28,1.28,0,0,1,.34,0,.76.76,0,0,1,.24.23.77.77,0,0,0,.79.43.55.55,0,0,0,.28-.07.78.78,0,0,0,.36-.36,1,1,0,0,1,.24-.23,1.29,1.29,0,0,1,.34,0,1,1,0,0,0,.8-.19,1,1,0,0,0,.19-.8.78.78,0,0,1,0-.34.8.8,0,0,1,.22-.23,1,1,0,0,0,.44-.72A.94.94,0,0,0,13.58,15.57Zm-.4,1a1.3,1.3,0,0,0-.38.46,1.38,1.38,0,0,0-.05.61,1.29,1.29,0,0,1,0,.34,1.45,1.45,0,0,1-.36,0,1.36,1.36,0,0,0-.6.05,1.33,1.33,0,0,0-.44.38l-.2.2s-.05.05-.07.05-.2-.17-.26-.25a1.7,1.7,0,0,0-.46-.38A.82.82,0,0,0,10,18H9.74a1.22,1.22,0,0,1-.33,0,1,1,0,0,1,0-.34A1.44,1.44,0,0,0,9.34,17,1.4,1.4,0,0,0,9,16.54c-.07-.06-.23-.21-.23-.26s.16-.2.23-.27a1.13,1.13,0,0,0,.39-.45A1.38,1.38,0,0,0,9.39,15a1.29,1.29,0,0,1,0-.34,1.29,1.29,0,0,1,.34,0,1.38,1.38,0,0,0,.61,0,1.3,1.3,0,0,0,.46-.38c.06-.08.21-.24.26-.24s0,0,.07.05a1.8,1.8,0,0,1,.2.19,1.33,1.33,0,0,0,.44.38,1.36,1.36,0,0,0,.6,0,1.45,1.45,0,0,1,.36,0,1.29,1.29,0,0,1,0,.34,1.25,1.25,0,0,0,.05.61,1.19,1.19,0,0,0,.38.45c.07.07.24.22.24.27S13.25,16.48,13.18,16.54Zm.4-1a1,1,0,0,1-.22-.24.79.79,0,0,1,0-.34,1,1,0,0,0-.19-.8,1,1,0,0,0-.8-.19A1,1,0,0,1,12,14a1,1,0,0,1-.24-.23.78.78,0,0,0-.64-.42.76.76,0,0,0-.42.06.86.86,0,0,0-.37.36.76.76,0,0,1-.24.23,1,1,0,0,1-.34,0,1,1,0,0,0-.8.19,1,1,0,0,0-.18.8,1.3,1.3,0,0,1,0,.34,1.26,1.26,0,0,1-.22.24,1,1,0,0,0-.46.71,1,1,0,0,0,.46.72,1,1,0,0,1,.22.23,1.29,1.29,0,0,1,0,.34,1,1,0,0,0,.18.8,1,1,0,0,0,.8.19,1.28,1.28,0,0,1,.34,0,.76.76,0,0,1,.24.23.77.77,0,0,0,.79.43.55.55,0,0,0,.28-.07.78.78,0,0,0,.36-.36,1,1,0,0,1,.24-.23,1.29,1.29,0,0,1,.34,0,1,1,0,0,0,.8-.19,1,1,0,0,0,.19-.8.78.78,0,0,1,0-.34.8.8,0,0,1,.22-.23,1,1,0,0,0,.44-.72A.94.94,0,0,0,13.58,15.57Zm-.4,1a1.3,1.3,0,0,0-.38.46,1.38,1.38,0,0,0-.05.61,1.29,1.29,0,0,1,0,.34,1.45,1.45,0,0,1-.36,0,1.36,1.36,0,0,0-.6.05,1.33,1.33,0,0,0-.44.38l-.2.2s-.05.05-.07.05-.2-.17-.26-.25a1.7,1.7,0,0,0-.46-.38A.82.82,0,0,0,10,18H9.74a1.22,1.22,0,0,1-.33,0,1,1,0,0,1,0-.34A1.44,1.44,0,0,0,9.34,17,1.4,1.4,0,0,0,9,16.54c-.07-.06-.23-.21-.23-.26s.16-.2.23-.27a1.13,1.13,0,0,0,.39-.45A1.38,1.38,0,0,0,9.39,15a1.29,1.29,0,0,1,0-.34,1.29,1.29,0,0,1,.34,0,1.38,1.38,0,0,0,.61,0,1.3,1.3,0,0,0,.46-.38c.06-.08.21-.24.26-.24s0,0,.07.05a1.8,1.8,0,0,1,.2.19,1.33,1.33,0,0,0,.44.38,1.36,1.36,0,0,0,.6,0,1.45,1.45,0,0,1,.36,0,1.29,1.29,0,0,1,0,.34,1.25,1.25,0,0,0,.05.61,1.19,1.19,0,0,0,.38.45c.07.07.24.22.24.27S13.25,16.48,13.18,16.54Zm.4-1a1,1,0,0,1-.22-.24.79.79,0,0,1,0-.34,1,1,0,0,0-.19-.8,1,1,0,0,0-.8-.19A1,1,0,0,1,12,14a1,1,0,0,1-.24-.23.78.78,0,0,0-.64-.42.76.76,0,0,0-.42.06.86.86,0,0,0-.37.36.76.76,0,0,1-.24.23,1,1,0,0,1-.34,0,1,1,0,0,0-.8.19,1,1,0,0,0-.18.8,1.3,1.3,0,0,1,0,.34,1.26,1.26,0,0,1-.22.24,1,1,0,0,0-.46.71,1,1,0,0,0,.46.72,1,1,0,0,1,.22.23,1.29,1.29,0,0,1,0,.34,1,1,0,0,0,.18.8,1,1,0,0,0,.8.19,1.28,1.28,0,0,1,.34,0,.76.76,0,0,1,.24.23.77.77,0,0,0,.79.43.55.55,0,0,0,.28-.07.78.78,0,0,0,.36-.36,1,1,0,0,1,.24-.23,1.29,1.29,0,0,1,.34,0,1,1,0,0,0,.8-.19,1,1,0,0,0,.19-.8.78.78,0,0,1,0-.34.8.8,0,0,1,.22-.23,1,1,0,0,0,.44-.72A.94.94,0,0,0,13.58,15.57Zm-.4,1a1.3,1.3,0,0,0-.38.46,1.38,1.38,0,0,0-.05.61,1.29,1.29,0,0,1,0,.34,1.45,1.45,0,0,1-.36,0,1.36,1.36,0,0,0-.6.05,1.33,1.33,0,0,0-.44.38l-.2.2s-.05.05-.07.05-.2-.17-.26-.25a1.7,1.7,0,0,0-.46-.38A.82.82,0,0,0,10,18H9.74a1.22,1.22,0,0,1-.33,0,1,1,0,0,1,0-.34A1.44,1.44,0,0,0,9.34,17,1.4,1.4,0,0,0,9,16.54c-.07-.06-.23-.21-.23-.26s.16-.2.23-.27a1.13,1.13,0,0,0,.39-.45A1.38,1.38,0,0,0,9.39,15a1.29,1.29,0,0,1,0-.34,1.29,1.29,0,0,1,.34,0,1.38,1.38,0,0,0,.61,0,1.3,1.3,0,0,0,.46-.38c.06-.08.21-.24.26-.24s0,0,.07.05a1.8,1.8,0,0,1,.2.19,1.33,1.33,0,0,0,.44.38,1.36,1.36,0,0,0,.6,0,1.45,1.45,0,0,1,.36,0,1.29,1.29,0,0,1,0,.34,1.25,1.25,0,0,0,.05.61,1.19,1.19,0,0,0,.38.45c.07.07.24.22.24.27S13.25,16.48,13.18,16.54Zm.4-1a1,1,0,0,1-.22-.24.79.79,0,0,1,0-.34,1,1,0,0,0-.19-.8,1,1,0,0,0-.8-.19A1,1,0,0,1,12,14a1,1,0,0,1-.24-.23.78.78,0,0,0-.64-.42.76.76,0,0,0-.42.06.86.86,0,0,0-.37.36.76.76,0,0,1-.24.23,1,1,0,0,1-.34,0,1,1,0,0,0-.8.19,1,1,0,0,0-.18.8,1.3,1.3,0,0,1,0,.34,1.26,1.26,0,0,1-.22.24,1,1,0,0,0-.46.71,1,1,0,0,0,.46.72,1,1,0,0,1,.22.23,1.29,1.29,0,0,1,0,.34,1,1,0,0,0,.18.8,1,1,0,0,0,.8.19,1.28,1.28,0,0,1,.34,0,.76.76,0,0,1,.24.23.77.77,0,0,0,.79.43.55.55,0,0,0,.28-.07.78.78,0,0,0,.36-.36,1,1,0,0,1,.24-.23,1.29,1.29,0,0,1,.34,0,1,1,0,0,0,.8-.19,1,1,0,0,0,.19-.8.78.78,0,0,1,0-.34.8.8,0,0,1,.22-.23,1,1,0,0,0,.44-.72A.94.94,0,0,0,13.58,15.57Zm-.4,1a1.3,1.3,0,0,0-.38.46,1.38,1.38,0,0,0-.05.61,1.29,1.29,0,0,1,0,.34,1.45,1.45,0,0,1-.36,0,1.36,1.36,0,0,0-.6.05,1.33,1.33,0,0,0-.44.38l-.2.2s-.05.05-.07.05-.2-.17-.26-.25a1.7,1.7,0,0,0-.46-.38A.82.82,0,0,0,10,18H9.74a1.22,1.22,0,0,1-.33,0,1,1,0,0,1,0-.34A1.44,1.44,0,0,0,9.34,17,1.4,1.4,0,0,0,9,16.54c-.07-.06-.23-.21-.23-.26s.16-.2.23-.27a1.13,1.13,0,0,0,.39-.45A1.38,1.38,0,0,0,9.39,15a1.29,1.29,0,0,1,0-.34,1.29,1.29,0,0,1,.34,0,1.38,1.38,0,0,0,.61,0,1.3,1.3,0,0,0,.46-.38c.06-.08.21-.24.26-.24s0,0,.07.05a1.8,1.8,0,0,1,.2.19,1.33,1.33,0,0,0,.44.38,1.36,1.36,0,0,0,.6,0,1.45,1.45,0,0,1,.36,0,1.29,1.29,0,0,1,0,.34,1.25,1.25,0,0,0,.05.61,1.19,1.19,0,0,0,.38.45c.07.07.24.22.24.27S13.25,16.48,13.18,16.54Zm1.36,4-.34-.84a4.58,4.58,0,0,0,.34-6.46h0a4.58,4.58,0,0,0-3.4-1.51,4.56,4.56,0,0,0-3.45,7.55,3.19,3.19,0,0,0,.4.42l-.36.84-.92,2a.4.4,0,0,0,0,.32A.42.42,0,0,0,7,23a.44.44,0,0,0,.32,0l1-.36.36,1a.43.43,0,0,0,.38.28h0a.44.44,0,0,0,.38-.24l1.33-2.89h.71l1.34,2.89a.43.43,0,0,0,.39.24.46.46,0,0,0,.39-.28l.36-1,1,.36a.53.53,0,0,0,.33,0,.37.37,0,0,0,.2-.24.44.44,0,0,0,0-.32ZM9.11,22.64l-.17-.46-.15-.45-.93.32.92-2h0a3.41,3.41,0,0,0,1.06.49l.17,0Zm2-2.64h0a3.73,3.73,0,0,1,0-7.45h0a3.72,3.72,0,0,1,0,7.44ZM14,21.89l-.46-.18-.34.93-.92-2,.17,0a3.37,3.37,0,0,0,1.09-.5l.92,2Zm-.39-6.32a1,1,0,0,1-.22-.24.79.79,0,0,1,0-.34,1,1,0,0,0-.19-.8,1,1,0,0,0-.8-.19A1,1,0,0,1,12,14a1,1,0,0,1-.24-.23.78.78,0,0,0-.64-.42.76.76,0,0,0-.42.06.86.86,0,0,0-.37.36.76.76,0,0,1-.24.23,1,1,0,0,1-.34,0,1,1,0,0,0-.8.19,1,1,0,0,0-.18.8,1.3,1.3,0,0,1,0,.34,1.26,1.26,0,0,1-.22.24,1,1,0,0,0-.46.71,1,1,0,0,0,.46.72,1,1,0,0,1,.22.23,1.29,1.29,0,0,1,0,.34,1,1,0,0,0,.18.8,1,1,0,0,0,.8.19,1.28,1.28,0,0,1,.34,0,.76.76,0,0,1,.24.23.77.77,0,0,0,.79.43.55.55,0,0,0,.28-.07.78.78,0,0,0,.36-.36,1,1,0,0,1,.24-.23,1.29,1.29,0,0,1,.34,0,1,1,0,0,0,.8-.19,1,1,0,0,0,.19-.8.78.78,0,0,1,0-.34.8.8,0,0,1,.22-.23,1,1,0,0,0,.44-.72A.94.94,0,0,0,13.58,15.57Zm-.4,1a1.3,1.3,0,0,0-.38.46,1.38,1.38,0,0,0-.05.61,1.29,1.29,0,0,1,0,.34,1.45,1.45,0,0,1-.36,0,1.36,1.36,0,0,0-.6.05,1.33,1.33,0,0,0-.44.38l-.2.2s-.05.05-.07.05-.2-.17-.26-.25a1.7,1.7,0,0,0-.46-.38A.82.82,0,0,0,10,18H9.74a1.22,1.22,0,0,1-.33,0,1,1,0,0,1,0-.34A1.44,1.44,0,0,0,9.34,17,1.4,1.4,0,0,0,9,16.54c-.07-.06-.23-.21-.23-.26s.16-.2.23-.27a1.13,1.13,0,0,0,.39-.45A1.38,1.38,0,0,0,9.39,15a1.29,1.29,0,0,1,0-.34,1.29,1.29,0,0,1,.34,0,1.38,1.38,0,0,0,.61,0,1.3,1.3,0,0,0,.46-.38c.06-.08.21-.24.26-.24s0,0,.07.05a1.8,1.8,0,0,1,.2.19,1.33,1.33,0,0,0,.44.38,1.36,1.36,0,0,0,.6,0,1.45,1.45,0,0,1,.36,0,1.29,1.29,0,0,1,0,.34,1.25,1.25,0,0,0,.05.61,1.19,1.19,0,0,0,.38.45c.07.07.24.22.24.27S13.25,16.48,13.18,16.54Zm.4-1a1,1,0,0,1-.22-.24.79.79,0,0,1,0-.34,1,1,0,0,0-.19-.8,1,1,0,0,0-.8-.19A1,1,0,0,1,12,14a1,1,0,0,1-.24-.23.78.78,0,0,0-.64-.42.76.76,0,0,0-.42.06.86.86,0,0,0-.37.36.76.76,0,0,1-.24.23,1,1,0,0,1-.34,0,1,1,0,0,0-.8.19,1,1,0,0,0-.18.8,1.3,1.3,0,0,1,0,.34,1.26,1.26,0,0,1-.22.24,1,1,0,0,0-.46.71,1,1,0,0,0,.46.72,1,1,0,0,1,.22.23,1.29,1.29,0,0,1,0,.34,1,1,0,0,0,.18.8,1,1,0,0,0,.8.19,1.28,1.28,0,0,1,.34,0,.76.76,0,0,1,.24.23.77.77,0,0,0,.79.43.55.55,0,0,0,.28-.07.78.78,0,0,0,.36-.36,1,1,0,0,1,.24-.23,1.29,1.29,0,0,1,.34,0,1,1,0,0,0,.8-.19,1,1,0,0,0,.19-.8.78.78,0,0,1,0-.34.8.8,0,0,1,.22-.23,1,1,0,0,0,.44-.72A.94.94,0,0,0,13.58,15.57Zm-.4,1a1.3,1.3,0,0,0-.38.46,1.38,1.38,0,0,0-.05.61,1.29,1.29,0,0,1,0,.34,1.45,1.45,0,0,1-.36,0,1.36,1.36,0,0,0-.6.05,1.33,1.33,0,0,0-.44.38l-.2.2s-.05.05-.07.05-.2-.17-.26-.25a1.7,1.7,0,0,0-.46-.38A.82.82,0,0,0,10,18H9.74a1.22,1.22,0,0,1-.33,0,1,1,0,0,1,0-.34A1.44,1.44,0,0,0,9.34,17,1.4,1.4,0,0,0,9,16.54c-.07-.06-.23-.21-.23-.26s.16-.2.23-.27a1.13,1.13,0,0,0,.39-.45A1.38,1.38,0,0,0,9.39,15a1.29,1.29,0,0,1,0-.34,1.29,1.29,0,0,1,.34,0,1.38,1.38,0,0,0,.61,0,1.3,1.3,0,0,0,.46-.38c.06-.08.21-.24.26-.24s0,0,.07.05a1.8,1.8,0,0,1,.2.19,1.33,1.33,0,0,0,.44.38,1.36,1.36,0,0,0,.6,0,1.45,1.45,0,0,1,.36,0,1.29,1.29,0,0,1,0,.34,1.25,1.25,0,0,0,.05.61,1.19,1.19,0,0,0,.38.45c.07.07.24.22.24.27S13.25,16.48,13.18,16.54Zm.4-1a1,1,0,0,1-.22-.24.79.79,0,0,1,0-.34,1,1,0,0,0-.19-.8,1,1,0,0,0-.8-.19A1,1,0,0,1,12,14a1,1,0,0,1-.24-.23.78.78,0,0,0-.64-.42.76.76,0,0,0-.42.06.86.86,0,0,0-.37.36.76.76,0,0,1-.24.23,1,1,0,0,1-.34,0,1,1,0,0,0-.8.19,1,1,0,0,0-.18.8,1.3,1.3,0,0,1,0,.34,1.26,1.26,0,0,1-.22.24,1,1,0,0,0-.46.71,1,1,0,0,0,.46.72,1,1,0,0,1,.22.23,1.29,1.29,0,0,1,0,.34,1,1,0,0,0,.18.8,1,1,0,0,0,.8.19,1.28,1.28,0,0,1,.34,0,.76.76,0,0,1,.24.23.77.77,0,0,0,.79.43.55.55,0,0,0,.28-.07.78.78,0,0,0,.36-.36,1,1,0,0,1,.24-.23,1.29,1.29,0,0,1,.34,0,1,1,0,0,0,.8-.19,1,1,0,0,0,.19-.8.78.78,0,0,1,0-.34.8.8,0,0,1,.22-.23,1,1,0,0,0,.44-.72A.94.94,0,0,0,13.58,15.57Zm-.4,1a1.3,1.3,0,0,0-.38.46,1.38,1.38,0,0,0-.05.61,1.29,1.29,0,0,1,0,.34,1.45,1.45,0,0,1-.36,0,1.36,1.36,0,0,0-.6.05,1.33,1.33,0,0,0-.44.38l-.2.2s-.05.05-.07.05-.2-.17-.26-.25a1.7,1.7,0,0,0-.46-.38A.82.82,0,0,0,10,18H9.74a1.22,1.22,0,0,1-.33,0,1,1,0,0,1,0-.34A1.44,1.44,0,0,0,9.34,17,1.4,1.4,0,0,0,9,16.54c-.07-.06-.23-.21-.23-.26s.16-.2.23-.27a1.13,1.13,0,0,0,.39-.45A1.38,1.38,0,0,0,9.39,15a1.29,1.29,0,0,1,0-.34,1.29,1.29,0,0,1,.34,0,1.38,1.38,0,0,0,.61,0,1.3,1.3,0,0,0,.46-.38c.06-.08.21-.24.26-.24s0,0,.07.05a1.8,1.8,0,0,1,.2.19,1.33,1.33,0,0,0,.44.38,1.36,1.36,0,0,0,.6,0,1.45,1.45,0,0,1,.36,0,1.29,1.29,0,0,1,0,.34,1.25,1.25,0,0,0,.05.61,1.19,1.19,0,0,0,.38.45c.07.07.24.22.24.27S13.25,16.48,13.18,16.54Zm.4-1a1,1,0,0,1-.22-.24.79.79,0,0,1,0-.34,1,1,0,0,0-.19-.8,1,1,0,0,0-.8-.19A1,1,0,0,1,12,14a1,1,0,0,1-.24-.23.78.78,0,0,0-.64-.42.76.76,0,0,0-.42.06.86.86,0,0,0-.37.36.76.76,0,0,1-.24.23,1,1,0,0,1-.34,0,1,1,0,0,0-.8.19,1,1,0,0,0-.18.8,1.3,1.3,0,0,1,0,.34,1.26,1.26,0,0,1-.22.24,1,1,0,0,0-.46.71,1,1,0,0,0,.46.72,1,1,0,0,1,.22.23,1.29,1.29,0,0,1,0,.34,1,1,0,0,0,.18.8,1,1,0,0,0,.8.19,1.28,1.28,0,0,1,.34,0,.76.76,0,0,1,.24.23.77.77,0,0,0,.79.43.55.55,0,0,0,.28-.07.78.78,0,0,0,.36-.36,1,1,0,0,1,.24-.23,1.29,1.29,0,0,1,.34,0,1,1,0,0,0,.8-.19,1,1,0,0,0,.19-.8.78.78,0,0,1,0-.34.8.8,0,0,1,.22-.23,1,1,0,0,0,.44-.72A.94.94,0,0,0,13.58,15.57Zm-.4,1a1.3,1.3,0,0,0-.38.46,1.38,1.38,0,0,0-.05.61,1.29,1.29,0,0,1,0,.34,1.45,1.45,0,0,1-.36,0,1.36,1.36,0,0,0-.6.05,1.33,1.33,0,0,0-.44.38l-.2.2s-.05.05-.07.05-.2-.17-.26-.25a1.7,1.7,0,0,0-.46-.38A.82.82,0,0,0,10,18H9.74a1.22,1.22,0,0,1-.33,0,1,1,0,0,1,0-.34A1.44,1.44,0,0,0,9.34,17,1.4,1.4,0,0,0,9,16.54c-.07-.06-.23-.21-.23-.26s.16-.2.23-.27a1.13,1.13,0,0,0,.39-.45A1.38,1.38,0,0,0,9.39,15a1.29,1.29,0,0,1,0-.34,1.29,1.29,0,0,1,.34,0,1.38,1.38,0,0,0,.61,0,1.3,1.3,0,0,0,.46-.38c.06-.08.21-.24.26-.24s0,0,.07.05a1.8,1.8,0,0,1,.2.19,1.33,1.33,0,0,0,.44.38,1.36,1.36,0,0,0,.6,0,1.45,1.45,0,0,1,.36,0,1.29,1.29,0,0,1,0,.34,1.25,1.25,0,0,0,.05.61,1.19,1.19,0,0,0,.38.45c.07.07.24.22.24.27S13.25,16.48,13.18,16.54Zm.4-1a1,1,0,0,1-.22-.24.79.79,0,0,1,0-.34,1,1,0,0,0-.19-.8,1,1,0,0,0-.8-.19A1,1,0,0,1,12,14a1,1,0,0,1-.24-.23.78.78,0,0,0-.64-.42.76.76,0,0,0-.42.06.86.86,0,0,0-.37.36.76.76,0,0,1-.24.23,1,1,0,0,1-.34,0,1,1,0,0,0-.8.19,1,1,0,0,0-.18.8,1.3,1.3,0,0,1,0,.34,1.26,1.26,0,0,1-.22.24,1,1,0,0,0-.46.71,1,1,0,0,0,.46.72,1,1,0,0,1,.22.23,1.29,1.29,0,0,1,0,.34,1,1,0,0,0,.18.8,1,1,0,0,0,.8.19,1.28,1.28,0,0,1,.34,0,.76.76,0,0,1,.24.23.77.77,0,0,0,.79.43.55.55,0,0,0,.28-.07.78.78,0,0,0,.36-.36,1,1,0,0,1,.24-.23,1.29,1.29,0,0,1,.34,0,1,1,0,0,0,.8-.19,1,1,0,0,0,.19-.8.78.78,0,0,1,0-.34.8.8,0,0,1,.22-.23,1,1,0,0,0,.44-.72A.94.94,0,0,0,13.58,15.57Zm-.4,1a1.3,1.3,0,0,0-.38.46,1.38,1.38,0,0,0-.05.61,1.29,1.29,0,0,1,0,.34,1.45,1.45,0,0,1-.36,0,1.36,1.36,0,0,0-.6.05,1.33,1.33,0,0,0-.44.38l-.2.2s-.05.05-.07.05-.2-.17-.26-.25a1.7,1.7,0,0,0-.46-.38A.82.82,0,0,0,10,18H9.74a1.22,1.22,0,0,1-.33,0,1,1,0,0,1,0-.34A1.44,1.44,0,0,0,9.34,17,1.4,1.4,0,0,0,9,16.54c-.07-.06-.23-.21-.23-.26s.16-.2.23-.27a1.13,1.13,0,0,0,.39-.45A1.38,1.38,0,0,0,9.39,15a1.29,1.29,0,0,1,0-.34,1.29,1.29,0,0,1,.34,0,1.38,1.38,0,0,0,.61,0,1.3,1.3,0,0,0,.46-.38c.06-.08.21-.24.26-.24s0,0,.07.05a1.8,1.8,0,0,1,.2.19,1.33,1.33,0,0,0,.44.38,1.36,1.36,0,0,0,.6,0,1.45,1.45,0,0,1,.36,0,1.29,1.29,0,0,1,0,.34,1.25,1.25,0,0,0,.05.61,1.19,1.19,0,0,0,.38.45c.07.07.24.22.24.27S13.25,16.48,13.18,16.54Zm.4-1a1,1,0,0,1-.22-.24.79.79,0,0,1,0-.34,1,1,0,0,0-.19-.8,1,1,0,0,0-.8-.19A1,1,0,0,1,12,14a1,1,0,0,1-.24-.23.78.78,0,0,0-.64-.42.76.76,0,0,0-.42.06.86.86,0,0,0-.37.36.76.76,0,0,1-.24.23,1,1,0,0,1-.34,0,1,1,0,0,0-.8.19,1,1,0,0,0-.18.8,1.3,1.3,0,0,1,0,.34,1.26,1.26,0,0,1-.22.24,1,1,0,0,0-.46.71,1,1,0,0,0,.46.72,1,1,0,0,1,.22.23,1.29,1.29,0,0,1,0,.34,1,1,0,0,0,.18.8,1,1,0,0,0,.8.19,1.28,1.28,0,0,1,.34,0,.76.76,0,0,1,.24.23.77.77,0,0,0,.79.43.55.55,0,0,0,.28-.07.78.78,0,0,0,.36-.36,1,1,0,0,1,.24-.23,1.29,1.29,0,0,1,.34,0,1,1,0,0,0,.8-.19,1,1,0,0,0,.19-.8.78.78,0,0,1,0-.34.8.8,0,0,1,.22-.23,1,1,0,0,0,.44-.72A.94.94,0,0,0,13.58,15.57Zm-.4,1a1.3,1.3,0,0,0-.38.46,1.38,1.38,0,0,0-.05.61,1.29,1.29,0,0,1,0,.34,1.45,1.45,0,0,1-.36,0,1.36,1.36,0,0,0-.6.05,1.33,1.33,0,0,0-.44.38l-.2.2s-.05.05-.07.05-.2-.17-.26-.25a1.7,1.7,0,0,0-.46-.38A.82.82,0,0,0,10,18H9.74a1.22,1.22,0,0,1-.33,0,1,1,0,0,1,0-.34A1.44,1.44,0,0,0,9.34,17,1.4,1.4,0,0,0,9,16.54c-.07-.06-.23-.21-.23-.26s.16-.2.23-.27a1.13,1.13,0,0,0,.39-.45A1.38,1.38,0,0,0,9.39,15a1.29,1.29,0,0,1,0-.34,1.29,1.29,0,0,1,.34,0,1.38,1.38,0,0,0,.61,0,1.3,1.3,0,0,0,.46-.38c.06-.08.21-.24.26-.24s0,0,.07.05a1.8,1.8,0,0,1,.2.19,1.33,1.33,0,0,0,.44.38,1.36,1.36,0,0,0,.6,0,1.45,1.45,0,0,1,.36,0,1.29,1.29,0,0,1,0,.34,1.25,1.25,0,0,0,.05.61,1.19,1.19,0,0,0,.38.45c.07.07.24.22.24.27S13.25,16.48,13.18,16.54Zm.4-1a1,1,0,0,1-.22-.24.79.79,0,0,1,0-.34,1,1,0,0,0-.19-.8,1,1,0,0,0-.8-.19A1,1,0,0,1,12,14a1,1,0,0,1-.24-.23.78.78,0,0,0-.64-.42.76.76,0,0,0-.42.06.86.86,0,0,0-.37.36.76.76,0,0,1-.24.23,1,1,0,0,1-.34,0,1,1,0,0,0-.8.19,1,1,0,0,0-.18.8,1.3,1.3,0,0,1,0,.34,1.26,1.26,0,0,1-.22.24,1,1,0,0,0-.46.71,1,1,0,0,0,.46.72,1,1,0,0,1,.22.23,1.29,1.29,0,0,1,0,.34,1,1,0,0,0,.18.8,1,1,0,0,0,.8.19,1.28,1.28,0,0,1,.34,0,.76.76,0,0,1,.24.23.77.77,0,0,0,.79.43.55.55,0,0,0,.28-.07.78.78,0,0,0,.36-.36,1,1,0,0,1,.24-.23,1.29,1.29,0,0,1,.34,0,1,1,0,0,0,.8-.19,1,1,0,0,0,.19-.8.78.78,0,0,1,0-.34.8.8,0,0,1,.22-.23,1,1,0,0,0,.44-.72A.94.94,0,0,0,13.58,15.57Zm-.4,1a1.3,1.3,0,0,0-.38.46,1.38,1.38,0,0,0-.05.61,1.29,1.29,0,0,1,0,.34,1.45,1.45,0,0,1-.36,0,1.36,1.36,0,0,0-.6.05,1.33,1.33,0,0,0-.44.38l-.2.2s-.05.05-.07.05-.2-.17-.26-.25a1.7,1.7,0,0,0-.46-.38A.82.82,0,0,0,10,18H9.74a1.22,1.22,0,0,1-.33,0,1,1,0,0,1,0-.34A1.44,1.44,0,0,0,9.34,17,1.4,1.4,0,0,0,9,16.54c-.07-.06-.23-.21-.23-.26s.16-.2.23-.27a1.13,1.13,0,0,0,.39-.45A1.38,1.38,0,0,0,9.39,15a1.29,1.29,0,0,1,0-.34,1.29,1.29,0,0,1,.34,0,1.38,1.38,0,0,0,.61,0,1.3,1.3,0,0,0,.46-.38c.06-.08.21-.24.26-.24s0,0,.07.05a1.8,1.8,0,0,1,.2.19,1.33,1.33,0,0,0,.44.38,1.36,1.36,0,0,0,.6,0,1.45,1.45,0,0,1,.36,0,1.29,1.29,0,0,1,0,.34,1.25,1.25,0,0,0,.05.61,1.19,1.19,0,0,0,.38.45c.07.07.24.22.24.27S13.25,16.48,13.18,16.54Z"/></g><path id="Path_1243" data-name="Path 1243" class="cls-1" d="M13.58,15.57a1,1,0,0,1-.22-.24.79.79,0,0,1,0-.34,1,1,0,0,0-.19-.8,1,1,0,0,0-.8-.19A1,1,0,0,1,12,14a1,1,0,0,1-.24-.23.78.78,0,0,0-.64-.42.76.76,0,0,0-.42.06.86.86,0,0,0-.37.36.76.76,0,0,1-.24.23,1,1,0,0,1-.34,0,1,1,0,0,0-.8.19,1,1,0,0,0-.18.8,1.3,1.3,0,0,1,0,.34,1.26,1.26,0,0,1-.22.24,1,1,0,0,0-.46.71,1,1,0,0,0,.46.72,1,1,0,0,1,.22.23,1.29,1.29,0,0,1,0,.34,1,1,0,0,0,.18.8,1,1,0,0,0,.8.19,1.28,1.28,0,0,1,.34,0,.76.76,0,0,1,.24.23.77.77,0,0,0,.79.43.55.55,0,0,0,.28-.07.78.78,0,0,0,.36-.36,1,1,0,0,1,.24-.23,1.29,1.29,0,0,1,.34,0,1,1,0,0,0,.8-.19,1,1,0,0,0,.19-.8.78.78,0,0,1,0-.34.8.8,0,0,1,.22-.23,1,1,0,0,0,.44-.72A.94.94,0,0,0,13.58,15.57Zm-.4,1a1.3,1.3,0,0,0-.38.46,1.38,1.38,0,0,0-.05.61,1.29,1.29,0,0,1,0,.34,1.45,1.45,0,0,1-.36,0,1.36,1.36,0,0,0-.6.05,1.33,1.33,0,0,0-.44.38l-.2.2s-.05.05-.07.05-.2-.17-.26-.25a1.7,1.7,0,0,0-.46-.38A.82.82,0,0,0,10,18H9.74a1.22,1.22,0,0,1-.33,0,1,1,0,0,1,0-.34A1.44,1.44,0,0,0,9.34,17,1.4,1.4,0,0,0,9,16.54c-.07-.06-.23-.21-.23-.26s.16-.2.23-.27a1.13,1.13,0,0,0,.39-.45A1.38,1.38,0,0,0,9.39,15a1.29,1.29,0,0,1,0-.34,1.29,1.29,0,0,1,.34,0,1.38,1.38,0,0,0,.61,0,1.3,1.3,0,0,0,.46-.38c.06-.08.21-.24.26-.24s0,0,.07.05a1.8,1.8,0,0,1,.2.19,1.33,1.33,0,0,0,.44.38,1.36,1.36,0,0,0,.6,0,1.45,1.45,0,0,1,.36,0,1.29,1.29,0,0,1,0,.34,1.25,1.25,0,0,0,.05.61,1.19,1.19,0,0,0,.38.45c.07.07.24.22.24.27S13.25,16.48,13.18,16.54Z"/></g></g></g></svg>