<svg xmlns="http://www.w3.org/2000/svg" viewBox="0 0 27.7 26.44"><defs><style>.cls-1{fill:#fff;}</style></defs><title>second opinion 6</title><g id="Layer_2" data-name="Layer 2"><g id="Layer_1-2" data-name="Layer 1"><path class="cls-1" d="M14.82.7l2.57,7.92a1,1,0,0,0,1,.7h8.32a1,1,0,0,1,.6,1.84l-6.73,4.89a1,1,0,0,0-.37,1.14l2.57,7.92a1,1,0,0,1-1.57,1.14l-6.73-4.9a1,1,0,0,0-1.2,0l-6.73,4.9A1,1,0,0,1,5,25.11l2.57-7.92a1,1,0,0,0-.37-1.14L.42,11.16A1,1,0,0,1,1,9.32H9.34a1,1,0,0,0,1-.7L12.88.7A1,1,0,0,1,14.82.7Z"/></g></g></svg>