<svg xmlns="http://www.w3.org/2000/svg" viewBox="0 0 24.72 25.1"><defs><style>.cls-1{fill:#fff;}</style></defs><title>store</title><g id="Layer_2" data-name="Layer 2"><g id="Layer_1-2" data-name="Layer 1"><g id="Group_2418" data-name="Group 2418"><path id="Path_1149" data-name="Path 1149" class="cls-1" d="M14.68,19.94H3a.66.66,0,0,1,0-1.31H14.68A1.27,1.27,0,0,0,16,17.36v0a1.27,1.27,0,0,0-1.27-1.27H3a.66.66,0,0,1,0-1.32H14.68a2.6,2.6,0,0,1,2.59,2.59v0A2.59,2.59,0,0,1,14.68,19.94Z"/></g><g id="Group_2419" data-name="Group 2419"><path id="Path_1150" data-name="Path 1150" class="cls-1" d="M15.88,16a.5.5,0,0,1-.5-.5.39.39,0,0,1,0-.14L18.59,4.87H1.2l2,10.58a.5.5,0,0,1-.39.58.49.49,0,0,1-.58-.39L0,3.88H19.92l-3.57,11.8A.49.49,0,0,1,15.88,16Z"/></g><g id="Group_2420" data-name="Group 2420"><path id="Path_1151" data-name="Path 1151" class="cls-1" d="M16.94,4.87a.5.5,0,0,1-.49-.5.88.88,0,0,1,0-.16L17.85.34h3.3a.49.49,0,0,1,.46.52.49.49,0,0,1-.46.46h-2.6L17.41,4.54A.5.5,0,0,1,16.94,4.87Z"/></g><g id="Group_2421" data-name="Group 2421"><path id="Path_1152" data-name="Path 1152" class="cls-1" d="M23.92,1.65H21.15a.83.83,0,0,1,0-1.65h2.77a.83.83,0,0,1,0,1.65Z"/></g><g id="Group_2422" data-name="Group 2422"><path id="Path_1153" data-name="Path 1153" class="cls-1" d="M11.34,22.75a2.35,2.35,0,1,0,2.35-2.35h0A2.35,2.35,0,0,0,11.34,22.75Z"/></g><g id="Group_2423" data-name="Group 2423"><circle id="Ellipse_7" data-name="Ellipse 7" class="cls-1" cx="3.96" cy="22.75" r="2.35"/></g><g id="Group_2426" data-name="Group 2426"><path id="Path_1155" data-name="Path 1155" class="cls-1" d="M12.28,15.76h-.09a.49.49,0,0,1-.4-.57L13.61,4.71a.51.51,0,0,1,.56-.43.5.5,0,0,1,.42.56v0L12.76,15.35A.49.49,0,0,1,12.28,15.76Z"/></g><g id="Group_2427" data-name="Group 2427"><path id="Path_1156" data-name="Path 1156" class="cls-1" d="M10,15.53h0A.49.49,0,0,1,9.51,15l.68-10.36a.51.51,0,0,1,.54-.46.5.5,0,0,1,.45.52L10.5,15.07A.49.49,0,0,1,10,15.53Z"/></g><g id="Group_2428" data-name="Group 2428"><path id="Path_1157" data-name="Path 1157" class="cls-1" d="M5.61,15.76a.5.5,0,0,1-.49-.42L3.47,4.87a.5.5,0,0,1,1-.15L6.1,15.19a.49.49,0,0,1-.41.56Z"/></g><g id="Group_2429" data-name="Group 2429"><path id="Path_1158" data-name="Path 1158" class="cls-1" d="M7.68,15.53a.5.5,0,0,1-.5-.47L6.67,4.7a.5.5,0,0,1,1,0L8.17,15a.5.5,0,0,1-.47.52h0Z"/></g><g id="Group_2430" data-name="Group 2430"><path id="Path_1159" data-name="Path 1159" class="cls-1" d="M18.13,8.47H1.74a.49.49,0,0,1-.06-1H18.13a.49.49,0,0,1,0,1Z"/></g><g id="Group_2431" data-name="Group 2431"><path id="Path_1160" data-name="Path 1160" class="cls-1" d="M16.76,12.12H2.31a.5.5,0,0,1-.46-.53.49.49,0,0,1,.46-.46H16.76a.49.49,0,0,1,.46.53A.49.49,0,0,1,16.76,12.12Z"/></g></g></g></svg>