<svg xmlns="http://www.w3.org/2000/svg" viewBox="0 0 12.44 11.88"><defs><style>.cls-1{fill:#1a243a;}</style></defs><title>Asset 12</title><g id="Layer_2" data-name="Layer 2"><g id="Layer_1-2" data-name="Layer 1"><path class="cls-1" d="M6.65.32,7.81,3.87a.46.46,0,0,0,.43.32H12a.45.45,0,0,1,.27.82l-3,2.2a.46.46,0,0,0-.17.51l1.16,3.56a.46.46,0,0,1-.71.51l-3-2.2a.45.45,0,0,0-.54,0l-3,2.2a.46.46,0,0,1-.71-.51L3.38,7.72a.46.46,0,0,0-.17-.51L.19,5a.45.45,0,0,1,.27-.82H4.2a.46.46,0,0,0,.43-.32L5.79.32A.45.45,0,0,1,6.65.32Z"/></g></g></svg>