<svg xmlns="http://www.w3.org/2000/svg" viewBox="0 0 24.88 22.18"><defs><style>.cls-1{fill:#1a243a;}</style></defs><title>Asset 9</title><g id="Layer_2" data-name="Layer 2"><g id="Layer_1-2" data-name="Layer 1"><g id="Group_868" data-name="Group 868"><g id="Group_865" data-name="Group 865"><g id="Group_864" data-name="Group 864"><path id="Path_1238" data-name="Path 1238" class="cls-1" d="M24.62,8.76,12.83.13a.65.65,0,0,0-.77,0L.27,8.76a.65.65,0,0,0-.15.91h0a.65.65,0,0,0,.9.14L12.44,1.45,23.85,9.81a.66.66,0,0,0,.38.12.65.65,0,0,0,.65-.65h0a.66.66,0,0,0-.26-.52Z"/></g></g><g id="Group_867" data-name="Group 867"><g id="Group_866" data-name="Group 866"><path id="Path_1239" data-name="Path 1239" class="cls-1" d="M21.5,10a.65.65,0,0,0-.65.65h0V20.89H15.68V15.27A3.23,3.23,0,0,0,12.5,12h0a3.22,3.22,0,0,0-3.28,3.18h0v5.72H4V10.6A.65.65,0,0,0,3.4,10h0a.65.65,0,0,0-.65.65h0V21.54a.65.65,0,0,0,.65.64H9.86a.65.65,0,0,0,.65-.6V15.27a1.93,1.93,0,0,1,1.93-1.94h0a1.94,1.94,0,0,1,1.94,1.94h0v6.32a.65.65,0,0,0,.65.59h6.46a.65.65,0,0,0,.65-.64V10.6A.65.65,0,0,0,21.5,10Z"/></g></g></g></g></g></svg>