<svg xmlns="http://www.w3.org/2000/svg" viewBox="0 0 26.12 20.72"><defs><style>.cls-1{fill:#1a243a;}</style></defs><title>Asset 13</title><g id="Layer_2" data-name="Layer 2"><g id="Layer_1-2" data-name="Layer 1"><g id="Group_884" data-name="Group 884"><g id="Group_883" data-name="Group 883"><g id="Group_882" data-name="Group 882"><path id="Path_1252" data-name="Path 1252" class="cls-1" d="M16.6,10.12a.47.47,0,0,0-.14-.14h0l-3.4-2.16-1.55-1a.45.45,0,0,0-.62.14.49.49,0,0,0-.08.24v6.3a.45.45,0,0,0,.45.45h0a.45.45,0,0,0,.25-.07l1.55-1,3.4-2.16A.45.45,0,0,0,16.6,10.12Zm-3.54,1.71-1.35.86V8l1.35.86,2.32,1.47Z"/><path id="Path_1253" data-name="Path 1253" class="cls-1" d="M25.67,0H.45A.45.45,0,0,0,0,.45V20.27a.45.45,0,0,0,.45.45H25.67a.44.44,0,0,0,.45-.44h0V.45A.45.45,0,0,0,25.67,0ZM21.62.9h3.6V5h-3.6Zm0,9.91h3.6v4h-3.6ZM.9.9H4.5V5H.9ZM4.5,19.82H.9v-4H4.5Zm0-5H.91v-4h3.6Zm0-4.95H.91v-4h3.6Zm16.21,9.91H5.41V.9H20.72Zm4.5,0h-3.6v-4h3.61Zm0-9.9h-3.6v-4h3.61Z"/></g></g></g></g></g></svg>